<svg id="Layer_1" data-name="Layer 1" xmlns="http://www.w3.org/2000/svg" viewBox="0 0 465 137"><defs><style>.cls-1{fill:#009ed9;}</style></defs><title>Artboard 1</title><polygon class="cls-1" points="405.82 5.84 405.82 92.83 459.73 92.83 459.73 73.47 425.42 73.47 425.42 58.77 443.93 58.77 443.93 39.9 425.42 39.9 425.42 25.2 459.73 25.2 459.73 5.84 405.82 5.84"/><path class="cls-1" d="M48.68,74.94A25.33,25.33,0,0,0,70.24,62.81L85.06,74.94a44.47,44.47,0,1,1,0-51.21L70.24,35.86A25.33,25.33,0,0,0,48.68,23.73c-14.09,0-24.75,11.64-24.75,25.61S34.59,74.94,48.68,74.94"/><polygon class="cls-1" points="149.51 5.84 169.11 5.84 169.11 92.83 149.51 92.83 149.51 58.77 114.72 58.77 114.72 92.83 95.11 92.83 95.11 5.84 114.72 5.84 114.72 39.9 149.51 39.9 149.51 5.84"/><path class="cls-1" d="M250.71,49.34c0-14-10.66-25.61-24.75-25.61s-24.75,11.64-24.75,25.61S211.87,74.94,226,74.94s24.75-11.64,24.75-25.61m-69.22,0A44.47,44.47,0,1,1,226,93.81a44.55,44.55,0,0,1-44.47-44.47"/><rect class="cls-1" x="282.77" y="5.15" width="19.72" height="87.68"/><path class="cls-1" d="M359.38,74.94a25.33,25.33,0,0,0,21.56-12.13l14.82,12.13a44.47,44.47,0,1,1,0-51.21L380.95,35.86a25.33,25.33,0,0,0-21.56-12.13c-14.09,0-24.75,11.64-24.75,25.61s10.66,25.61,24.75,25.61"/><rect class="cls-1" x="5.61" y="112.73" width="454.12" height="18.86"/></svg>