<svg id="DESIGN_BK" data-name="DESIGN BK" xmlns="http://www.w3.org/2000/svg" viewBox="0 0 85.07 37.01">
  <defs>
    <style>
      .cls-1 {
        fill: #004f8b;
      }

      .cls-2 {
        fill: #00609b;
      }

      .cls-3 {
        fill: #fff;
      }

      .cls-4 {
        fill: #00aeef;
      }
    </style>
  </defs>
  <rect class="cls-1" x="-0.38" y="-0.53" width="85.84" height="38.08"/>
  <g>
    <polygon class="cls-2" points="16.58 31.12 16.58 31.12 16.57 31.12 16.58 31.12"/>
    <polygon class="cls-2" points="33.49 8.15 33.5 8.16 33.5 8.16 33.49 8.15"/>
  </g>
  <g>
    <g>
      <polygon class="cls-3" points="15.14 31.12 15.14 31.12 15.13 31.12 15.14 31.12"/>
      <polygon class="cls-3" points="15.13 3.11 15.14 3.11 15.14 3.11 15.13 3.11"/>
      <path class="cls-3" d="M24.75,12.86a9.61,9.61,0,1,0-19.22,0c0,9.42,9.57,18.22,9.61,18.26S24.75,22.28,24.75,12.86Zm-14.84.35a5.23,5.23,0,1,1,5.23,5.31A5.26,5.26,0,0,1,9.91,13.21Z"/>
    </g>
    <path class="cls-3" d="M33.54,8.16a9.3,9.3,0,0,0-8-1.55,11.7,11.7,0,0,1,1.83,6.25c0,7.64-5.65,14.77-8.55,17.93C22.7,30,31.17,27.8,35.44,22A9.91,9.91,0,0,0,33.54,8.16Z"/>
  </g>
  <g>
    <path class="cls-3" d="M42.85,13.06v-.22c0-.36.22-.53.58-.46,1.45.27,3.09.27,3.09-.66,0-.34-.21-.6-1-.92l-.71-.31C43.4,9.88,42.9,9.25,42.9,8.31c0-1.87,2-2.34,4.34-1.81a.54.54,0,0,1,.46.58v.23c0,.36-.22.53-.58.47-1.36-.22-2.63-.24-2.63.5,0,.33.22.6.94.89l.66.28c1.42.6,2,1.21,2,2.27,0,2.1-2.47,2.49-4.82,1.91A.53.53,0,0,1,42.85,13.06Z"/>
    <path class="cls-3" d="M54.48,13.33l-.41-1.45H50.89l-.41,1.45a.55.55,0,0,1-.58.45h-.59a.41.41,0,0,1-.43-.59l1.5-5c.42-1.4,1-1.87,2.1-1.87s1.71.46,2.1,1.87l1.51,5a.42.42,0,0,1-.44.59h-.59A.55.55,0,0,1,54.48,13.33Zm-.79-2.78-.62-2.24c-.15-.5-.29-.65-.59-.65s-.43.15-.58.65l-.63,2.24Z"/>
    <path class="cls-3" d="M57.18,13.25V8c0-1.18.54-1.63,1.76-1.63H62a.47.47,0,0,1,.52.52v.32a.47.47,0,0,1-.52.52H59.33c-.47,0-.55.18-.55.47V9.41H61.6a.47.47,0,0,1,.52.52v.32a.47.47,0,0,1-.52.52H58.78v2.48a.48.48,0,0,1-.52.53H57.7A.48.48,0,0,1,57.18,13.25Z"/>
    <path class="cls-3" d="M63.65,12.15V8c0-1.18.54-1.63,1.76-1.63h3.07a.47.47,0,0,1,.52.52v.32a.47.47,0,0,1-.52.52H65.8c-.47,0-.55.18-.55.47V9.39h2.68a.47.47,0,0,1,.52.52v.29a.47.47,0,0,1-.52.52H65.25v1.22c0,.29.08.47.55.47h2.88a.47.47,0,0,1,.52.53v.31a.47.47,0,0,1-.52.53H65.41C64.19,13.78,63.65,13.33,63.65,12.15Z"/>
    <path class="cls-3" d="M79.35,13.87l-.25.26a.48.48,0,0,1-.78,0l-.58-.62a4,4,0,0,1-1.8.38c-3.32,0-4.15-3-1.91-4.4-1.45-2.19.36-3.88,3.6-2.9a.57.57,0,0,1,.44.6v.19c0,.37-.23.53-.62.45-2.33-.54-2.86.2-1.6,1.55l1.91,2a3.21,3.21,0,0,0,0-1.3c0-.36.11-.57.47-.57h.36a.51.51,0,0,1,.56.49,3.88,3.88,0,0,1-.39,2.49l.55.59A.49.49,0,0,1,79.35,13.87Zm-2.57-1.38-2-2.11c-1.2.82-.67,2.24,1.11,2.24A2.57,2.57,0,0,0,76.78,12.49Z"/>
  </g>
  <g>
    <path class="cls-3" d="M42.85,21.67V16.44c0-1.18.54-1.63,1.76-1.63h3.07a.47.47,0,0,1,.52.53v.31a.47.47,0,0,1-.52.53H45c-.47,0-.55.18-.55.47v1.17h2.82a.47.47,0,0,1,.52.52v.33a.47.47,0,0,1-.52.52H44.45v2.48a.47.47,0,0,1-.52.52h-.56A.47.47,0,0,1,42.85,21.67Z"/>
    <path class="cls-3" d="M48.88,18.5c0-2.47,1.39-3.79,3.46-3.79S55.8,16,55.8,18.5s-1.39,3.79-3.46,3.79S48.88,21,48.88,18.5Zm5.23,0c0-1.84-.72-2.4-1.77-2.4s-1.77.56-1.77,2.4.72,2.4,1.77,2.4S54.11,20.34,54.11,18.5Z"/>
    <path class="cls-3" d="M63.66,15.34v3.84c0,2.1-.89,3.11-3.3,3.11s-3.31-1-3.31-3.11V15.34a.48.48,0,0,1,.52-.53h.56a.47.47,0,0,1,.52.53v3.92c0,1.1.51,1.59,1.71,1.59s1.7-.49,1.7-1.59V15.34a.48.48,0,0,1,.52-.53h.56A.48.48,0,0,1,63.66,15.34Z"/>
    <path class="cls-3" d="M65.24,21.67V16.24c0-1.13.36-1.43,1.32-1.43.69,0,1.13.16,1.64,1.26L70,20.17c.06.13.11.17.17.17s.13-.07.13-.21l0-4.79a.47.47,0,0,1,.52-.53h.51a.48.48,0,0,1,.52.53v5.43c0,1.13-.36,1.42-1.32,1.42-.69,0-1.13-.15-1.64-1.26l-1.82-4.09c-.06-.13-.1-.17-.17-.17s-.13.07-.13.2l0,4.8a.47.47,0,0,1-.52.52h-.51A.47.47,0,0,1,65.24,21.67Z"/>
    <path class="cls-3" d="M73.43,20.56V16.44c0-1.18.55-1.63,1.77-1.63h.56c2.47,0,3.77.87,3.77,3.69s-1.3,3.69-3.77,3.69H75.2C74,22.19,73.43,21.74,73.43,20.56Zm2.66.29c1.24,0,1.84-.51,1.84-2.35s-.6-2.34-1.84-2.34H75.5c-.39,0-.47.21-.47.54v3.61c0,.33.08.54.47.54Z"/>
  </g>
  <g>
    <path class="cls-4" d="M43.35,23.23h.55a.49.49,0,0,1,.54.49L45,28.81q0,.12.12.12c.08,0,.11,0,.12-.11l.93-4.62c.13-.69.54-1,1.29-1s1.16.28,1.3,1l.93,4.62c0,.07,0,.11.12.11s.11,0,.12-.12l.53-5.09a.49.49,0,0,1,.54-.49h.55a.44.44,0,0,1,.49.55l-.61,5.39c-.12,1.12-.56,1.54-1.49,1.54s-1.32-.42-1.53-1.54l-.78-3.92c0-.18-.09-.23-.17-.23s-.13.05-.17.23l-.78,3.92c-.21,1.12-.6,1.54-1.53,1.54s-1.36-.42-1.48-1.54l-.61-5.39A.44.44,0,0,1,43.35,23.23Z"/>
    <path class="cls-4" d="M58.06,30.17l-.41-1.46H54.48l-.41,1.46a.55.55,0,0,1-.58.44H52.9c-.37,0-.54-.23-.43-.59L54,25c.41-1.41,1-1.88,2.1-1.88s1.71.46,2.1,1.88l1.5,5c.11.36-.06.59-.43.59h-.59A.56.56,0,0,1,58.06,30.17Zm-.78-2.79-.62-2.24c-.15-.5-.29-.64-.59-.64s-.44.14-.58.64l-.63,2.24Z"/>
  </g>
</svg>
