<svg xmlns="http://www.w3.org/2000/svg" viewBox="0 0 55.85 27.21"><title>sc-logo</title><path d="M30.33 17.77c5.18-7.23-2.27-11.71-3.92-15.46C25.86 1 27.35-1 29.61.59c1 .73 1.44 3.25 1.63 4.57 0 .27.05.46.33.37.12 0 .07-4.89.07-5s0-.19.16-.16c3.32.67 6.81 2.25 8.66 5.06 3 4.55-.1 10.9-10.13 12.35" fill="#a8996e"/><path d="M25 .19c-4.18 6.62 3.6 9.61 4.33 14.59.39 2.71-4 5.94-5.1-1.86a3.6 3.6 0 0 1-.06-.46c0-.17-.11-.15-.22-.15s-.1.11-.1.18v4.83c0 .17 0 .23-.21.18-10.23-2.15-12.84-10.67-5-15.26A16.85 16.85 0 0 1 25 .19M27 0c-.57 0-1.1.07-1.62.13l-.16.12c-3.52 5.53 8.23 10 4.16 16.38-1 1.56-2 1.36.52 1.21.32 0 .49-.39.67-.71 2-3.42.79-6.37-2.15-9C24.91 5 25.17 1.8 27 0M12.51 27.07l.16.1V27c0-3.27-.22-3.66.41-3.7l.14-.05c0-.11-.1-.06-.15-.06H12c-.05 0-.15-.05-.14.06l.14.05c.29 0 .39.1.4.4v2.37s-2.34-2.79-2.46-2.89h-.87l-.07.06.08.06c.29 0 .69.26.69.5v2.76c0 .32-.12.43-.43.44h-.13c0 .09.08.07.13.07h1.12s.13 0 .13-.07h-.12c-.66 0-.4-.37-.44-2.94.15.13 2.35 2.85 2.48 3.01zm-6.69.05h1.37A.18.18 0 0 0 7.4 27c.07-.23.16-.46.23-.69 0 0 .1-.12 0-.16l-.13.11c-.49.8-.6.67-1.88.66-.13 0-.19-.11-.19-.23V25.3l.11-.11c1 0 1.2-.13 1.35.47 0 0 0 .13.08.12v-.13-1.1s0-.13-.06-.13l-.06.12c-.11.6-.75.43-1.37.45-.1 0-.09-.07-.09-.13v-1.3c0-.09 0-.13.12-.13 1.33 0 1.5-.18 1.7.55l.08.09.05-.1c0-1 .38-.76-3-.76l-.09.06.1.06c.29 0 .42 0 .44.32s0 2.56 0 2.88-.11.49-.43.51c0 0-.13-.05-.13.05s.09.06.13.06h1.46m-3.45-3.37v-.69H2.3c-.07.25-.24.18-.4.11a1.24 1.24 0 0 0-1.79.58c-.25.82.44 1.18 1.17 1.6a3 3 0 0 1 .69.46.61.61 0 0 1-.27 1 1.11 1.11 0 0 1-1.4-.74l-.07-.24-.07-.09L0 26v1.23h.08c.06-.26.23-.18.39-.13 1.23.38 1.86 0 2-.64.33-1.16-1-1.28-1.88-2s.95-1.65 1.43-.37a3.74 3.74 0 0 1 .1.39l.08.08v-.09-.58zM29 26.52v.6l.05.08h.07c0-.25.21-.17.35-.13a2.8 2.8 0 0 0 1 .18 1.21 1.21 0 0 0 1.1-.79c.27-.93-.56-1.24-1.38-1.72-2-1.19.72-2.19 1-.33l.06.1.06-.11v-1.25l-.08.06c-.06.2-.2.18-.35.11-.92-.4-1.65 0-1.83.57-.27.88.56 1.25 1.35 1.71 2.07 1.2-1 2.31-1.22.41l-.09-.1L29 26v.56zm7.76-1.36c0-2.16 2-2.4 2.61-1 .25.64.14-.3.09-1l-.07-.12-.07.05c-.16.26-.16.26-.44.13a2 2 0 0 0-2.79 1.91 1.88 1.88 0 0 0 3.47 1.12v-.14l-.13.08c-1.34 1.47-2.72.49-2.7-1.08m-21.14 2h.71c.05 0 .13 0 .13-.07h-.13c-.31 0-.42-.12-.42-.42v-2.86c0-.33.1-.41.43-.43l.12-.06-.11-.06H14.75c0 .1.08.06.13.07.66 0 .44.4.42 3.26 0 .33-.1.43-.44.45l-.11.06.12.05h.72zM53 26.57v-2.94c0-.07 0-.14.09-.16 1.77-.41 2.49 1.32 1.89 2.6-.48 1-2 1-2 .5m-.06-3.39H52s-.13 0-.13.06l.12.05c.33 0 .43.1.43.43v2.8c0 .37-.09.44-.45.48l-.1.06.1.06c1.38 0 4 .39 3.85-2.14-.11-1.95-1.9-1.78-2.9-1.8M25 23.41a.83.83 0 1 1 0 1.67c-.63.08-.38.08-.46-1.41.03-.18.04-.26.46-.26zm.56 1.8a2.63 2.63 0 0 0 .5-.2.94.94 0 0 0 .13-1.53c-.5-.43-1.42-.28-2.58-.3-.05 0-.15 0-.14.06l.14.05c.63 0 .42.39.41 3.3 0 .4-.2.35-.54.46 0 .11.09.07.14.07H25c.06 0 .17.05.17-.06S25 27 25 27c-.56 0-.39-.49-.39-1.62l.05-.11a.44.44 0 0 1 .46.16L26.23 27a.24.24 0 0 0 .22.12h.77l.14-.05c0-.09-.08-.07-.12-.08-.65-.11-1.24-1.2-1.67-1.77m22.23-.27v-.67-.64c0-.21 0-.19.18-.2 1.38-.14 1.66 1.57 0 1.67-.1 0-.14 0-.13-.16m1 .27c1.51-.52 1.05-1.86 0-2a19.69 19.69 0 0 0-2 0l-.12.06.12.06c.35 0 .44.11.45.46v2.78c0 .34-.11.44-.45.47 0 0-.12 0-.11.06l.12.06h1.49l.08-.06-.14-.11c-.68 0-.47-.37-.48-1.65v-.07l.45.09c1.5 2.08 1 1.74 2.17 1.74h.13c0-.09-.07-.09-.12-.09a1 1 0 0 1-.68-.41c-.34-.44-.66-.9-1-1.37m-29.89 1a2.59 2.59 0 0 1-.2-1.15c-.05-3.09 3.68-1.9 2.33 1.24a1.12 1.12 0 0 1-2.08-.07m3-1.16a1.94 1.94 0 1 0-3.84.34 1.94 1.94 0 1 0 3.84-.34M43 24l.66 1.57h-1.32L43 24m1.46 3.11h.7l.1-.06-.05-.05c-.34 0-.46-.29-.58-.56s-1.29-3.14-1.46-3.36l-.11.14c-.17.39-1.31 3.08-1.48 3.41a.51.51 0 0 1-.39.34l-.1.09h1.12l.15-.05c0-.08-.1-.07-.2-.1-.47-.1-.12-.56.06-1a.18.18 0 0 1 .2-.12H43c.24 0 .54-.1.71 0s.22.48.32.69.05.37-.25.45l-.11.07h.77z" fill="#0a3a6e"/></svg>